# xmcd CD database file
#
# Track frame offsets:
#	150
#	10740
#	29725
#	52850
#	78380
#	94465
#
# Disc length: 1685 seconds
#
# Revision: 0
# Processed by: cddbd v1.5.1PL2 Copyright (c) Steve Scherf et al.
# Submitted via: CDex 1.51
#
DISCID=42069306
DTITLE=江口洋介 - オン・ザ・ロード
DYEAR=1996
DGENRE=J-Pop
TTITLE0=香港ブルース
TTITLE1=イカれた男の歌
TTITLE2=お金
TTITLE3=LOVE MAN
TTITLE4=Silence
TTITLE5=On the Road
EXTD=YEAR: 1996
EXTT0=
EXTT1=
EXTT2=
EXTT3=
EXTT4=
EXTT5=
PLAYORDER=
